<svg width="20" height="21" viewBox="0 0 20 21" fill="none" xmlns="http://www.w3.org/2000/svg">
<path d="M13.7861 3.02344C16.1407 3.02344 18.0771 4.98615 18.1016 7.40039C18.1226 9.51154 17.3762 11.461 15.8174 13.3613C15.0857 14.2528 13.7586 15.6809 10.6904 17.7637C10.4871 17.9023 10.2461 17.9764 10 17.9766C9.75397 17.9762 9.51376 17.9014 9.31055 17.7627C6.24241 15.6799 4.91428 14.2528 4.18262 13.3613C2.62311 11.4606 1.87741 9.51017 1.89844 7.39941C1.92315 4.98576 3.86039 3.02344 6.21484 3.02344C7.9269 3.02357 9.11343 3.98784 9.80566 4.79297C9.82986 4.82083 9.85998 4.84309 9.89355 4.8584C9.927 4.87365 9.96324 4.88177 10 4.88184C10.0369 4.88184 10.0738 4.87371 10.1074 4.8584C10.141 4.84309 10.1711 4.82081 10.1953 4.79297C10.8876 3.98707 12.074 3.02353 13.7861 3.02344Z" fill="black" stroke="#4C4850" stroke-width="0.046875"/>
</svg>
