<svg width="16" height="16" viewBox="0 0 16 16" fill="none" xmlns="http://www.w3.org/2000/svg">
<path d="M12.3131 15C12.2079 15.0004 12.1052 14.9676 12.0197 14.9063L8.00064 11.9925L3.98158 14.9063C3.89571 14.9685 3.79227 15.0019 3.6862 15.0015C3.58012 15.0011 3.47692 14.967 3.39151 14.9041C3.3061 14.8412 3.24291 14.7528 3.21107 14.6516C3.17923 14.5504 3.18039 14.4417 3.21439 14.3413L4.78189 9.69844L0.719389 6.9125C0.631393 6.85223 0.564978 6.76539 0.529849 6.66468C0.49472 6.56397 0.492718 6.45466 0.524134 6.35273C0.555551 6.2508 0.618741 6.16159 0.704471 6.09813C0.790201 6.03467 0.893978 6.00028 1.00064 6H6.01251L7.52501 1.34532C7.5576 1.24482 7.62117 1.15723 7.70662 1.09511C7.79207 1.03299 7.895 0.999527 8.00064 0.999527C8.10628 0.999527 8.20921 1.03299 8.29466 1.09511C8.38011 1.15723 8.44368 1.24482 8.47626 1.34532L9.98876 6.00157H15.0006C15.1074 6.00151 15.2114 6.03566 15.2974 6.099C15.3834 6.16233 15.4469 6.25154 15.4785 6.35355C15.5101 6.45556 15.5082 6.56501 15.4731 6.66587C15.438 6.76674 15.3716 6.85371 15.2835 6.91407L11.2194 9.69844L12.786 14.34C12.8113 14.4152 12.8185 14.4953 12.8068 14.5737C12.7951 14.6522 12.7649 14.7267 12.7187 14.7912C12.6725 14.8557 12.6116 14.9082 12.5411 14.9445C12.4706 14.9809 12.3925 14.9999 12.3131 15Z" fill="#FF8682"/>
</svg>
