<svg width="15" height="14" viewBox="0 0 15 14" fill="none" xmlns="http://www.w3.org/2000/svg">
<path d="M13.9033 0.0396729C14.0402 0.069031 14.1657 0.137975 14.2646 0.236938C14.3636 0.336299 14.432 0.462077 14.4609 0.599243C14.4899 0.736465 14.4781 0.879498 14.4277 1.01038V1.01135L9.69629 13.5084C9.64057 13.647 9.54483 13.7658 9.4209 13.8492C9.29663 13.9328 9.14973 13.977 9 13.9762H8.96973C8.67418 13.9629 8.42916 13.7654 8.33203 13.484H8.33105C8.32906 13.4786 8.3279 13.4732 8.32617 13.4674L8.3252 13.4655L6.49219 9.17151C6.46877 9.09259 6.46681 9.00859 6.48535 8.92834C6.50415 8.84728 6.54393 8.77251 6.60059 8.71155L6.59961 8.71057L13.0166 1.82874C13.0392 1.80609 13.0571 1.77919 13.0693 1.74963C13.0816 1.71999 13.0879 1.68797 13.0879 1.65588C13.0879 1.62402 13.0815 1.59257 13.0693 1.56311C13.0571 1.53346 13.0393 1.50573 13.0166 1.48303C12.994 1.46044 12.967 1.44257 12.9375 1.4303C12.9079 1.41804 12.8758 1.41177 12.8438 1.41174C12.8117 1.41174 12.7797 1.41802 12.75 1.4303C12.7353 1.4364 12.7212 1.44396 12.708 1.45276L12.6709 1.48303L5.78516 7.89905C5.7242 7.95569 5.64941 7.99548 5.56836 8.01428C5.50741 8.02836 5.44413 8.0303 5.38281 8.02014L5.32227 8.00647L1.03418 6.17444H1.03223L1.01953 6.17053C0.877658 6.12306 0.753784 6.03218 0.665039 5.91174C0.576511 5.79147 0.526831 5.64698 0.523438 5.49768C0.520128 5.34821 0.563264 5.20098 0.646484 5.07678C0.728591 4.95435 0.846389 4.8604 0.983398 4.80627L0.991211 4.80334L13.4922 0.0718994C13.6231 0.0221101 13.7664 0.0103472 13.9033 0.0396729Z" fill="black" stroke="#112211" stroke-width="0.046875"/>
</svg>
