<svg width="16" height="16" viewBox="0 0 16 16" fill="none" xmlns="http://www.w3.org/2000/svg">
<path d="M14.4033 1.0397C14.5402 1.06906 14.6657 1.13801 14.7646 1.23697C14.8636 1.33633 14.932 1.46211 14.9609 1.59927C14.9899 1.7365 14.9781 1.87953 14.9277 2.01041V2.01138L10.1963 14.5085C10.1406 14.6471 10.0448 14.7659 9.9209 14.8493C9.79663 14.9328 9.64973 14.9771 9.5 14.9762H9.46973C9.17418 14.9629 8.92916 14.7654 8.83203 14.484H8.83105C8.82906 14.4786 8.8279 14.4732 8.82617 14.4674L8.8252 14.4655L6.99219 10.1715C6.96877 10.0926 6.96681 10.0086 6.98535 9.92838C7.00415 9.84731 7.04393 9.77254 7.10059 9.71158L7.09961 9.7106L13.5166 2.82877C13.5392 2.80612 13.5571 2.77922 13.5693 2.74966C13.5816 2.72002 13.5879 2.688 13.5879 2.65591C13.5879 2.62405 13.5815 2.5926 13.5693 2.56314C13.5571 2.53349 13.5393 2.50576 13.5166 2.48306C13.494 2.46047 13.467 2.4426 13.4375 2.43033C13.4079 2.41807 13.3758 2.4118 13.3438 2.41177C13.3117 2.41177 13.2797 2.41805 13.25 2.43033C13.2353 2.43643 13.2212 2.44399 13.208 2.45279L13.1709 2.48306L6.28516 8.89908C6.2242 8.95573 6.14941 8.99551 6.06836 9.01431C6.00741 9.02839 5.94413 9.03033 5.88281 9.02017L5.82227 9.0065L1.53418 7.17447H1.53223L1.51953 7.17056C1.37766 7.12309 1.25378 7.03221 1.16504 6.91177C1.07651 6.7915 1.02683 6.64701 1.02344 6.49771C1.02013 6.34824 1.06326 6.20101 1.14648 6.07681C1.22859 5.95438 1.34639 5.86043 1.4834 5.8063L1.49121 5.80338L13.9922 1.07193C14.1231 1.02214 14.2664 1.01038 14.4033 1.0397Z" fill="black" stroke="#112211" stroke-width="0.046875"/>
</svg>
